<svg xmlns="http://www.w3.org/2000/svg" viewBox="0 0 64 64" width="64" height="64">
  <!-- Peach body (two rounded halves forming a butt/heart shape) -->
  <path d="M32 58 C14 58 4 44 4 32 C4 18 14 10 24 10 C28 10 31 12 32 16 C33 12 36 10 40 10 C50 10 60 18 60 32 C60 44 50 58 32 58Z" fill="#F9C9B6"/>
  <!-- Peach shadow/depth on left half -->
  <path d="M32 58 C14 58 4 44 4 32 C4 18 14 10 24 10 C28 10 31 12 32 16 L32 58Z" fill="#F5B8A0"/>
  <!-- Center cleft line -->
  <path d="M32 16 C31 24 30 36 32 58" stroke="#E8967A" stroke-width="1.5" fill="none" stroke-linecap="round"/>
  <!-- Stem -->
  <path d="M32 12 C32 8 34 4 36 2" stroke="#8B6914" stroke-width="2" fill="none" stroke-linecap="round"/>
  <!-- Left leaf -->
  <path d="M30 10 C24 4 18 4 16 6 C14 8 16 12 22 12 C26 12 28 11 30 10Z" fill="#5B8C3E"/>
  <!-- Left leaf vein -->
  <path d="M29 10 C25 8 21 7 18 7.5" stroke="#4A7532" stroke-width="0.7" fill="none" stroke-linecap="round"/>
  <!-- Right leaf -->
  <path d="M34 10 C40 4 46 4 48 6 C50 8 48 12 42 12 C38 12 36 11 34 10Z" fill="#6FA349"/>
  <!-- Right leaf vein -->
  <path d="M35 10 C39 8 43 7 46 7.5" stroke="#5B8C3E" stroke-width="0.7" fill="none" stroke-linecap="round"/>
</svg>
